<?xml version="1.0" encoding="UTF-8"?>
<svg id="_Layer_" data-name="&amp;lt;Layer&amp;gt;" xmlns="http://www.w3.org/2000/svg" viewBox="0 0 4474 3355.5">
  <defs>
    <style>
      .cls-1 {
        fill: #f1f2f2;
      }

      .cls-2 {
        fill: #ced1cc;
      }
    </style>
  </defs>
  <rect class="cls-1" width="4474" height="3355.5"/>
  <g>
    <g>
      <path class="cls-2" d="m1855.14,1287.47c0-85.91-69.66-155.55-155.54-155.55s-155.57,69.65-155.57,155.55,69.66,155.55,155.57,155.55,155.54-69.65,155.54-155.55Z"/>
      <path class="cls-2" d="m1169.67,2337.79h3.17c18.02,17.22,42.33,27.98,69.14,27.98h1989.98c26.87,0,51.12-10.76,69.14-27.98h3.22v-3.18c17.2-18.02,27.96-42.3,27.96-69.14V930.34c0-55.3-45-100.27-100.33-100.27h-1989.98c-55.32,0-100.27,44.97-100.27,100.27v1335.13c0,26.81,10.7,51.09,27.96,69.11v3.21Zm27.96-1407.45c0-24.49,19.88-44.35,44.35-44.35h1989.98c24.44,0,44.4,19.98,44.4,44.4v1236.47l-610.78-863.19c-50.22-70.94-155.48-70.94-205.68.01l-429.95,607.72,321.84,321.9c10.92,10.92,10.92,28.62,0,39.54-5.46,5.46-12.61,8.19-19.77,8.19s-14.31-2.73-19.77-8.19l-516.08-516.11c-49.43-49.43-129.68-49.15-178.78.63l-419.76,425.67V930.34Z"/>
    </g>
    <polygon class="cls-2" points="1582.72 2535.07 1550.94 2535.07 1550.94 2848.94 1575.08 2848.94 1575.08 2573.52 1697.19 2848.94 1728.92 2848.94 1728.92 2535.51 1703.86 2535.51 1703.86 2806.45 1582.72 2535.07"/>
    <path class="cls-2" d="m1803.85,2627.15c-21.46,18.35-31.73,56.36-31.29,116.27,0,6.72-.87,49.65,16.11,80.06,6.72,10.71,12.07,15.62,16.55,18.73,7.59,5.41,21.46,13,45.17,13,15.62,0,30.86-3.6,42.49-13,31.73-26.38,32.17-87.16,32.17-91.64.44-6.72.44-13.87.44-20.59,0-46.04-8.46-76.02-20.54-92.52-17.48-24.19-43.85-25.07-54.12-25.5-16.99,0-34.46,4.48-46.97,15.18Zm92.14,52.32c4.04,21.46,4.04,43.36,4.04,49.21,0,24.58-.93,80.5-24.19,98.36-7.15,4.92-16.06,7.16-25.45,7.16-21.46,0-32.22-10.27-36.7-16.11-4.92-6.72-8.9-15.18-12.51-34.4-1.8-11.2-3.55-27.75-3.55-52.76,0-23.27,1.75-48.33,10.7-69.8,3.6-8.46,6.72-13.38,9.83-16.06,9.83-10.32,25.94-11.2,30.85-11.63,13.87,0,26.38,4.92,33.97,13.87,9.39,10.7,12.56,28.62,13,32.17Z"/>
    <rect class="cls-2" x="2068.35" y="2534.58" width="28.18" height="39.81"/>
    <rect class="cls-2" x="2070.15" y="2619.12" width="24.14" height="229.82"/>
    <path class="cls-2" d="m2382.22,2848.94v-169.9c.44-25.94-1.8-35.34-10.27-46.04-14.31-19.71-34.46-21.03-42.93-21.03-21.96,0-38.01,9.39-43.86,14.31-4.91,3.55-12.94,11.63-12.94,11.63-9.83-11.19-16.55-18.79-30.42-23.26-2.68-.87-9.39-2.24-17.86-2.68-32.22,0-47.9,18.79-56.36,27.25v-22.34h-23.27v232.06h25.07v-181.97c8.47-13,16.55-24.58,30.37-30.42,7.65-3.11,13.43-3.55,16.55-3.55,19.72,0,29.11,13.82,31.79,19.66,1.75,3.11,2.68,8.46,3.55,17.42v178.86h25.5v-187.33c8.47-11.2,12.94-16.11,18.35-20.15,10.27-8.03,20.97-8.96,26.38-8.96,14.75,0,28.62,9.89,33.53,24.2,2.24,7.15,2.68,14.75,2.68,17.42v174.82h24.14Z"/>
    <path class="cls-2" d="m2484.4,2720.16c-18.79,5.84-35.77,12.51-47.84,28.62-12.56,17.48-12.07,36.7-12.07,43.85,0,15.18,2.24,23.7,4.42,29.93,4.48,11.63,17.48,33.1,50.08,33.1,29.98,0,44.29-17.42,51.45-25.5.87,2.68,3.11,16.55,14.75,20.59,3.6,1.36,6.72,1.36,8.52,1.36,6.72,0,17.86-1.8,18.79-1.8v-17.48c-11.2-1.31-16.55-2.18-17.91-13.82-.87-4.48-.87-8.95-1.31-13.43v-137.3c0-2.68-.49-18.73-6.28-30.8-2.24-4.48-6.28-10.32-10.27-13.44-14.8-11.63-38.01-12.07-41.61-12.07-37.08,0-52.32,18.35-58.55,33.1-4.04,9.83-5.41,20.1-6.72,31.29h25.01c.93-12.07,1.8-23.26,10.32-31.73,3.55-4.04,12.94-11.63,27.69-11.63,11.2,0,18.35,3.99,21.9,6.66,13.44,8.96,14.31,21.03,14.31,36.7,0,13.38-.44,19.22-4.42,24.14-8.08,10.27-28.18,15.67-40.25,19.66Zm45.16,4.91v54.12c-.93,15.18-2.24,27.25-12.07,38.88-8.52,9.83-21.03,16.11-33.53,16.11-10.32,0-16.11-3.55-19.71-6.28-8.03-6.23-13.87-16.06-13.87-37.08s10.76-33.53,17.91-38.89c5.35-3.6,11.19-6.28,17.42-8.52l43.85-18.35Z"/>
    <path class="cls-2" d="m2677.41,2905.74c-31.29,0-37.52-15.67-42-29.98h-25.51c1.37,7.15,3.11,14.8,6.72,21.46,6.72,12.56,23.7,30.86,58.6,30.86,31.73.49,46.91-13.38,55.87-24.14,13.44-16.55,13.87-32.17,14.31-39.76v-247.29h-24.58v20.1c-4.48-5.35-7.65-9.39-13.44-13.38-14.31-11.2-32.17-12.07-37.57-12.07-34.84,0-50.52,29.06-55.43,39.76-5.35,12.07-8.03,27.31-8.96,30.86-3.11,27.31-3.99,38.94-3.99,52.76,0,23.7,4.42,49.64,5.35,56.36,2.24,9.83,4.48,18.35,8.46,27.74,4.91,9.83,20.59,36.65,54.12,36.65,13,0,28.18-4.48,38.89-12.51,3.6-2.68,6.28-5.35,12.07-12.07,1.37,21.9,2.73,47.84-14.74,64.39-10.27,9.83-23.21,10.27-28.18,10.27Zm19.71-78.7c-9.39,6.28-17.48,7.16-22.39,7.16-8.9,0-24.58-4.04-34.41-22.34-11.2-20.59-13-52.32-13-74.22,0-20.15,2.73-63.08,11.63-81.43,9.4-19.66,26.87-23.7,35.34-23.7,25.07,0,34.9,19.72,37.57,25.94,8.03,17.48,10.27,39.38,10.27,79.63,0,48.28-6.23,76.46-25.01,88.97Z"/>
    <path class="cls-2" d="m2930.38,2731.36c.87-30.86-.44-38.01-3.11-55.93-4.04-18.73-8.52-36.21-23.26-48.72-15.67-13.87-36.7-14.75-43.36-14.75s-21.46.44-36.26,10.27c-13.82,8.95-20.53,21.9-23.21,27.31-14.31,30.86-13.44,85.85-13.44,88.09,0,29.06,3.61,50.52,6.28,61.66,12.94,47.4,46.04,55.49,66.14,55.49,7.16,0,13.44-.93,15.67-1.37,3.61-.44,12.51-2.24,21.46-8.03,25.07-15.67,29.05-46.09,29.98-53.69.87-5.35,1.31-10.7,2.24-16.11l-24.19-.44c-1.31,14.31-3.11,29.55-10.7,41.61-8.52,12.95-19.22,16.99-34.46,16.99-17.42,0-25.45-8.08-29.93-13.87-17.91-22.83-16.99-60.35-16.55-88.53h116.71Zm-105.08-76.9c4.04-8.52,11.63-21.96,34.84-21.96,4.48,0,15.67,0,25.51,7.16,20.59,15.67,20.59,55.49,20.59,58.16,0,4.48,0,8.96.44,13.38l-93.01.49c1.36-19.22,3.11-39.81,11.63-57.24Z"/>
  </g>
</svg>